{
  "accessors": [
    {
      "bufferView": 1,
      "componentType": 5126,
      "count": 192,
      "max": [
        1.6904929876327515,
        0.91875302791595459,
        0.3441300094127655
      ],
      "min": [
        0.11612498760223389,
        0.31932100653648376,
        0.026011005043983459
      ],
      "type": "VEC3"
    },
    {
      "bufferView": 1,
      "byteOffset": 2304,
      "componentType": 5126,
      "count": 192,
      "max": [
        0.92388236522674561,
        0.86816245317459106,
        0.98600459098815918
      ],
      "min": [
        -0.92388236522674561,
        -0.86816245317459106,
        -0.98600459098815918
      ],
      "type": "VEC3"
    },
    {
      "bufferView": 0,
      "componentType": 5125,
      "count": 288,
      "max": [
        191
      ],
      "min": [
        0
      ],
      "type": "SCALAR"
    },
    {
      "bufferView": 1,
      "byteOffset": 4608,
      "componentType": 5126,
      "count": 64,
      "max": [
        1.6311650276184082,
        0.85880899429321289,
        0.31231802701950073
      ],
      "min": [
        0.17545300722122192,
        0.37926399707794189,
        0.057823002338409424
      ],
      "type": "VEC3"
    },
    {
      "bufferView": 1,
      "byteOffset": 5376,
      "componentType": 5126,
      "count": 64,
      "max": [
        0.92388236522674561,
        0.86816245317459106,
        0.31598633527755737
      ],
      "min": [
        -0.92388236522674561,
        -0.86816245317459106,
        -0.31598633527755737
      ],
      "type": "VEC3"
    },
    {
      "bufferView": 0,
      "byteOffset": 1152,
      "componentType": 5125,
      "count": 96,
      "max": [
        63
      ],
      "min": [
        0
      ],
      "type": "SCALAR"
    },
    {
      "bufferView": 1,
      "byteOffset": 6144,
      "componentType": 5126,
      "count": 1243,
      "max": [
        1.8066179752349854,
        1.0260920524597168,
        0.52807700634002686
      ],
      "min": [
        0,
        0,
        0
      ],
      "type": "VEC3"
    },
    {
      "bufferView": 1,
      "byteOffset": 21060,
      "componentType": 5126,
      "count": 1243,
      "max": [
        0.99998104572296143,
        0.93970000743865967,
        0.99966460466384888
      ],
      "min": [
        -0.99998104572296143,
        -0.93970000743865967,
        -0.99547749757766724
      ],
      "type": "VEC3"
    },
    {
      "bufferView": 0,
      "byteOffset": 1536,
      "componentType": 5125,
      "count": 2571,
      "max": [
        1242
      ],
      "min": [
        0
      ],
      "type": "SCALAR"
    },
    {
      "bufferView": 1,
      "byteOffset": 35976,
      "componentType": 5126,
      "count": 428,
      "max": [
        1.8066179752349854,
        0.99737703800201416,
        0.50848698616027832
      ],
      "min": [
        0,
        0.0072910189628601074,
        0.040288008749485016
      ],
      "type": "VEC3"
    },
    {
      "bufferView": 1,
      "byteOffset": 41112,
      "componentType": 5126,
      "count": 428,
      "max": [
        1,
        0.93970000743865967,
        0.34200000762939453
      ],
      "min": [
        -0.99998104572296143,
        -1,
        -0.34200000762939453
      ],
      "type": "VEC3"
    },
    {
      "bufferView": 0,
      "byteOffset": 11820,
      "componentType": 5125,
      "count": 768,
      "max": [
        427
      ],
      "min": [
        0
      ],
      "type": "SCALAR"
    }
  ],
  "asset": {
    "extras": {
      "author": "Bachklamk (https://sketchfab.com/Bachklamk)",
      "license": "CC-BY-4.0 (http://creativecommons.org/licenses/by/4.0/)",
      "source": "https://sketchfab.com/models/cad1fc9ada864e06ab69a37705656392",
      "title": "TRON-ish low-poly drone"
    },
    "generator": "Sketchfab-3.18.6",
    "version": "2.0"
  },
  "bufferViews": [
    {
      "buffer": 0,
      "byteLength": 14892,
      "byteOffset": 0,
      "name": "floatBufferViews",
      "target": 34963
    },
    {
      "buffer": 0,
      "byteLength": 46248,
      "byteOffset": 14892,
      "byteStride": 12,
      "name": "floatBufferViews",
      "target": 34962
    }
  ],
  "buffers": [
    {
      "byteLength": 61140,
      "uri": "scene.bin"
    }
  ],
  "materials": [
    {
      "doubleSided": true,
      "emissiveFactor": [
        0,
        0,
        0
      ],
      "name": "Material.067",
      "pbrMetallicRoughness": {
        "baseColorFactor": [
          0.020770555712,
          0.020770555712,
          0.020770555712,
          1
        ],
        "metallicFactor": 1,
        "roughnessFactor": 0
      }
    },
    {
      "doubleSided": true,
      "emissiveFactor": [
        0,
        1,
        1
      ],
      "name": "Material.068",
      "pbrMetallicRoughness": {
        "baseColorFactor": [
          0,
          0.5483904074,
          1,
          1
        ],
        "metallicFactor": 0,
        "roughnessFactor": 0.59999999999999998
      }
    },
    {
      "doubleSided": true,
      "emissiveFactor": [
        0,
        0,
        0
      ],
      "name": "Material.069",
      "pbrMetallicRoughness": {
        "baseColorFactor": [
          0.020480000000000002,
          0.020480000000000002,
          0.020480000000000002,
          1
        ],
        "metallicFactor": 1,
        "roughnessFactor": 0.24975459560000002
      }
    },
    {
      "doubleSided": true,
      "emissiveFactor": [
        0,
        1,
        1
      ],
      "name": "Material.070",
      "pbrMetallicRoughness": {
        "baseColorFactor": [
          0.64000000000000001,
          0.64000000000000001,
          0.64000000000000001,
          1
        ],
        "metallicFactor": 0,
        "roughnessFactor": 1
      }
    }
  ],
  "meshes": [
    {
      "primitives": [
        {
          "attributes": {
            "NORMAL": 1,
            "POSITION": 0
          },
          "indices": 2,
          "material": 0,
          "mode": 4
        }
      ]
    },
    {
      "primitives": [
        {
          "attributes": {
            "NORMAL": 4,
            "POSITION": 3
          },
          "indices": 5,
          "material": 1,
          "mode": 4
        }
      ]
    },
    {
      "primitives": [
        {
          "attributes": {
            "NORMAL": 7,
            "POSITION": 6
          },
          "indices": 8,
          "material": 2,
          "mode": 4
        }
      ]
    },
    {
      "primitives": [
        {
          "attributes": {
            "NORMAL": 10,
            "POSITION": 9
          },
          "indices": 11,
          "material": 3,
          "mode": 4
        }
      ]
    }
  ],
  "nodes": [
    {
      "children": [
        1
      ],
      "name": "RootNode (gltf orientation matrix)",
      "rotation": [
        -0.70710678118654746,
        -0,
        -0,
        0.70710678118654757
      ]
    },
    {
      "children": [
        2
      ],
      "name": "RootNode (model correction matrix)"
    },
    {
      "children": [
        3
      ],
      "matrix": [
        1,
        0,
        0,
        0,
        0,
        1,
        0,
        0,
        0,
        0,
        1,
        0,
        -0.90330898761749268,
        -0.60381799936294556,
        -0.14325800538063049,
        1
      ],
      "name": "CYBER-hover.obj.cleaner.materialmerger.gles"
    },
    {
      "children": [
        4,
        5,
        6,
        7
      ],
      "name": ""
    },
    {
      "mesh": 0,
      "name": ""
    },
    {
      "mesh": 1,
      "name": ""
    },
    {
      "mesh": 2,
      "name": ""
    },
    {
      "mesh": 3,
      "name": ""
    }
  ],
  "scene": 0,
  "scenes": [
    {
      "name": "OSG_Scene",
      "nodes": [
        0
      ]
    }
  ]
}

